<?xml version="1.0" encoding="utf-8"?>
<!-- Generator: Adobe Illustrator 24.0.3, SVG Export Plug-In . SVG Version: 6.00 Build 0)  -->
<svg version="1.1" id="Calque_1"
    xmlns="http://www.w3.org/2000/svg"
    xmlns:xlink="http://www.w3.org/1999/xlink" x="0px" y="0px" viewBox="0 0 225 410" style="enable-background:new 0 0 225 410;" xml:space="preserve">
    <style type="text/css">
	.st0{fill:#FFFFFF;}
    </style>
    <g>
        <path fill="#FFF" d="M29.57,409.35c0.62-4.75,1.19-9.33,1.82-13.9c0.19-1.35-0.07-2.42-0.94-3.55c-3.88-5.05-6.64-10.62-7.84-16.96
		c-1.35-7.17-3.43-14.22-4.34-21.44c-1.13-9-1.52-18.1-1.97-27.17c-0.67-13.41-1.19-26.83-1.63-40.25
		c-0.12-3.82,0.25-7.67,0.46-11.5c0.28-5,0.53-10.01,0.96-15c0.31-3.65,1.02-7.27,1.31-10.93c0.13-1.62-0.13-3.34-0.54-4.93
		c-0.78-3.01-2.24-5.92-2.56-8.96c-0.27-2.6,0.49-5.36,1.09-7.98c1.06-4.6,3.43-8.96,2.1-13.96c-0.29-1.09,0.12-2.41,0.36-3.59
		c0.57-2.82,1.2-5.63,1.88-8.42c0.72-2.98,1.03-6.18,2.37-8.85c3.37-6.74,5.88-13.95,10.7-19.94c1.62-2.01,2.77-4.39,4.21-6.55
		c0.48-0.72,1.15-1.63,1.88-1.8c2.15-0.5,3.3-2.14,4.65-3.57c0.82-0.86,1.39-2.12,2.95-1.67c0.09,0.02,0.25-0.04,0.3-0.11
		c1.87-2.67,5.55-2.46,7.6-4.76c1.25-1.4,2.28-3,3.29-4.59c1.59-2.48,2.98-5.1,4.64-7.53c2.23-3.26,5.42-5.33,8.98-6.99
		c1.73-0.81,3.26-2.08,4.84-3.19c0.29-0.2,0.52-0.62,0.59-0.98c0.53-2.84,1.12-5.68,1.46-8.54c0.29-2.37,0.39-4.78,0.32-7.17
		c-0.04-1.13-0.37-2.55-1.11-3.32c-4.33-4.5-6.02-9.61-4.43-15.75c0.82-3.19,1.41-6.44,2.17-9.64c0.36-1.51-0.09-2.66-1.06-3.82
		c-8.44-10-16.86-20.03-25.26-30.07c-2.68-3.2-5.29-6.47-7.94-9.69c-0.35-0.43-0.79-0.78-1.16-1.19c-0.34-0.38-0.64-0.8-0.95-1.2
		c0.43-0.32,0.82-0.71,1.29-0.94c6.13-2.92,12.74-4.34,19.22-6.14c14.11-3.92,28.27-7.7,42.28-11.93c9.1-2.75,18-6.2,26.98-9.34
		c0.21-0.07,0.41-0.17,0.62-0.24c2.97-1.05,2.95-0.99,4.37,1.75c4.05,7.82,8.17,15.59,12.25,23.39c0.44,0.84,0.91,1.3,2.04,1.27
		c2.15-0.07,4.34,1.96,4.83,4.24c-1.18,0.33-2.22,1-1.64,2.41c0.63,1.53,0.1,3.93,2.79,4.08c0.23,0.01,0.62,0.2,0.65,0.36
		c0.26,1.42,0.66,2.87,0.59,4.29c-0.04,0.89,0.04,1.29,0.63,2.05c1.33,1.74,2.25,3.82,3.27,5.79c0.43,0.84,0.69,1.76,1.03,2.64
		c0.64,1.66,0.23,2.45-1.51,2.68c-1.21,0.17-2.45,0.32-3.66,0.25c-1.54-0.09-2.06,0.64-2.22,2.02c-0.35,2.99-0.66,5.99-1.2,8.95
		c-1.03,5.7-2.22,11.37-3.31,17.06c-1.68,8.75-3.32,17.5-5.03,26.25c-0.68,3.49-1.25,7.03-2.34,10.4c-0.76,2.33-2.21,4.47-3.54,6.58
		c-1.44,2.29-2.97,4.55-4.67,6.65c-1.62,2-3.73,3.51-6.28,4.15c-3.61,0.9-6.26,2.87-7.74,6.36c-0.39,0.91-0.76,1.67-2.25,1.03
		c-3.66-1.57-6.65-4.22-10.2-5.92c-0.23-0.11-0.47-0.19-0.94-0.04c0.83,1.15,1.65,2.3,2.48,3.44c2.66,3.64,5.33,7.28,7.97,10.93
		c0.64,0.89,1.14,0.98,2.32,0.59c1.79-0.59,3.83-0.71,5.73-0.58c0.8,0.06,1.51,1.29,1.99,1.73c0.62,0.21,1.11,0.23,1.31,0.48
		c0.55,0.69,1.02,1.46,1.45,2.23c2.38,4.28,4.6,8.66,7.17,12.82c0.73,1.18,2.34,2.2,3.73,2.53c3.46,0.82,5.5,3.43,7.96,5.55
		c0.67,0.58,1.17,1.39,1.88,1.88c4.22,2.94,6.56,7.16,8.34,11.82c0.42,1.1,1.24,2.07,1.96,3.03c0.96,1.29,1.95,2.56,3.03,3.75
		c2.21,2.42,4.5,4.77,6.75,7.15c7.61,8.05,15.22,16.1,22.81,24.18c1.99,2.12,3.47,4.55,4.7,7.23c1.57,3.43,3.74,6.57,5.51,9.91
		c2.24,4.23,4.4,8.49,6.44,12.82c0.98,2.09,1.19,4.28-0.42,6.32c-0.27,0.34-0.25,1.26,0.03,1.63c1.44,1.91,1.42,3.94,0.65,6.03
		c-0.68,1.84-0.6,3.64-0.3,5.57c0.32,2.06,0.53,4.31,0.02,6.29c-1.52,5.87-1.61,11.83-1.49,17.77c0.15,7.4,0.57,14.81,1.29,22.17
		c0.51,5.3,1.6,10.55,2.62,15.78c0.78,4.03,1.84,8,2.78,12c0.39,1.65,0.18,3.2-0.75,4.64c-0.33,0.51-0.64,1.08-0.77,1.66
		c-0.53,2.48-2.37,3.13-4.54,3.8c-3.3,1.02-5.74-0.29-8.07-2.27c-5.4-4.61-9.26-10.37-12.05-16.81c-1.86-4.27-3.1-8.81-4.85-13.14
		c-0.86-2.14-2.19-4.1-3.4-6.09c-0.52-0.85-1.21-1.15-2.16-0.23c-0.68,0.65-1.69,0.95-2.82,1.55c1.5,3.22,2.75,6.78,4.71,9.89
		c2.4,3.8,4.04,7.78,5.01,12.11c1,4.46,2.06,8.9,3.09,13.35c0.14,0.6,0.34,1.21,0.31,1.81c-0.42,7.39,2.66,14.05,4.38,20.98
		c1.07,4.31,2.39,8.55,3.66,13.03C140.16,409.35,84.97,409.35,29.57,409.35z M146.13,90.47c0-2.06,0.15-3.93-0.04-5.76
		c-0.27-2.53-0.72-5.05-1.26-7.54c-0.13-0.6-0.86-1.19-1.45-1.53c-1.1-0.64-2.26-1.34-3.48-1.57c-4.79-0.91-9.61-1.74-14.44-2.42
		c-2.3-0.32-4.66-0.3-6.99-0.32c-0.53-0.01-1.31,0.26-1.55,0.66c-0.71,1.18,0.52,3.86,1.78,4.49c0.71,0.36,1.27,1.01,1.9,1.53
		c-0.61,0.59-1.2,1.19-1.83,1.75c-0.2,0.18-0.49,0.29-0.75,0.35c-1.09,0.24-1.32,0.95-1.34,1.97c-0.05,1.75,1.34,1.94,2.44,2.52
		c1.35,0.71,2.71,1.43,3.96,2.3c1.17,0.82,2.2,1.85,3.28,2.8c0.33,0.29,0.71,0.58,0.9,0.95c1.73,3.4,2.89,6.95,2.79,10.82
		c-0.02,0.94,0.19,1.91,0.08,2.84c-0.12,0.98-0.53,1.92-0.74,2.89c-0.13,0.59-0.38,1.57-0.11,1.77c1.04,0.8,2.21,1.58,3.45,1.96
		c1.14,0.35,3.38,1.7,3.73,2.89c0.44,1.49,0.79,3.02,1.23,4.76c-0.34,0.24-0.9,0.63-1.57,1.1c1.28,1.18,1.71,2.49,0.6,3.84
		c-1.23,1.5-2.5,3-4.63,3.32c-0.46,0.07-1.14,0.46-1.23,0.82c-0.42,1.72-0.77,3.47-0.95,5.24c-0.14,1.31,1.47,2.74,3.02,2.83
		c1.69,0.11,1.26-1.3,1.57-2.22c0.35-1.03,0.69-2.12,1.29-3.01c1.31-1.95,3.08-3.64,4.13-5.71c1.23-2.43,2.13-5.1,2.72-7.77
		c0.75-3.45,1.26-6.99,1.49-10.52c0.28-4.14-0.67-8.37,1.2-12.36c0.11-0.23,0.15-0.68,0.01-0.8c-0.68-0.64-1.37-1.35-2.19-1.74
		c-0.38-0.18-1.08,0.31-1.64,0.5c0.52,0.54,0.96,1.22,1.58,1.6c1.75,1.08,0.54,2.53,0.52,3.78c-0.02,1.08-0.98,0.89-1.78,0.96
		c-0.65,0.06-1.54,0.25-1.86,0.71c-1.78,2.51-1.84,2.59-4.81,1.87c-0.27-0.07-0.6-0.03-0.81-0.19c-0.85-0.63-1.88-1.17-2.44-2.01
		c-0.62-0.94-0.89-2.15-1.17-3.27c-0.6-2.43,0.11-3.87,2.32-5.09c0.73-0.4,1.46-0.83,2.08-1.37c1.89-1.65,5.92-1.72,7.62,0.14
		C143.8,90.39,144.98,90.44,146.13,90.47z M153.47,316.03c-0.29,0.07-0.71,0.86-0.6,1.17c0.81,2.32,1.67,4.63,2.67,6.87
		c0.17,0.39,1.08,0.73,1.53,0.62c0.37-0.09,0.56-0.89,0.68-1.11c-0.38-2.9-0.87-5.35-2.82-7.16 M154.18,324.62
		c0.18-0.22,0.36-0.44,0.54-0.66c-2.65-1.12-1.65-3.42-2.21-5.22c-0.34-1.08-1.3-2-2.1-2.9c-0.21-0.23-0.82-0.15-1.24-0.12
		c-0.1,0.01-0.31,0.47-0.26,0.52c0.28,0.28,0.67,0.45,0.93,0.74c0.58,0.64,1.34,1.25,1.57,2.02c0.22,0.72-0.22,1.62-0.26,2.45
		c-0.04,0.88-0.28,2.17,0.18,2.56C152,324.56,153.21,324.45,154.18,324.62z M146.67,67.53c-1.37,0.33-2.19,0.45-2.96,0.74
		c-0.34,0.13-0.84,0.68-0.77,0.88c0.45,1.4,1.03,2.76,1.58,4.13c0.24-0.04,0.47-0.07,0.71-0.11
		C145.66,71.45,146.1,69.73,146.67,67.53z M129.88,192.18c1.69,2.2,3.33,3.64,5.87,3.96c-0.4-1.27-0.72-2.82-1.65-3.43
		C133.13,192.07,131.57,192.34,129.88,192.18z M159.63,324.69c0.19-0.06,0.39-0.12,0.58-0.18c-0.62-2.37-1.2-4.75-1.89-7.1
		c-0.08-0.28-0.73-0.4-1.12-0.59c0.01,0.4-0.09,0.83,0.04,1.19c0.51,1.5,1.1,2.99,1.64,4.48
		C159.14,323.21,159.38,323.95,159.63,324.69z M127.68,189.98c1.02,1.15,3.72,1.65,4.65,0.95c0.25-0.19,0.32-0.62,0.47-0.94
		c-0.27-0.13-0.55-0.37-0.81-0.36C130.63,189.71,129.27,189.85,127.68,189.98z M114.3,92.66c-0.31,0.06-0.62,0.11-0.93,0.17
		c0.14,0.67,0.27,1.34,0.41,2.01c0.27-0.12,0.78-0.25,0.78-0.36C114.54,93.86,114.4,93.26,114.3,92.66z"/>
        <path fill="#FFF" d="M119.54,162.23c0.7-0.87,1.4-1.73,2.1-2.6c0.19,0.15,0.38,0.29,0.56,0.44c-0.69,0.88-1.37,1.75-2.06,2.63
		C119.94,162.54,119.74,162.38,119.54,162.23z"/>
        <path class="st0" d="M154.18,324.62c-0.97-0.17-2.18-0.06-2.83-0.61"/>
        <path class="st0" d="M113.37,92.82"/>
        <path class="st0" d="M114.56,94.46c0,0.12-0.51,0.24-0.78,0.36"/>
        <path fill="#FFF" d="M155.59,322.81c-0.55-1.66-1.11-3.31-1.66-4.97c1.78,0.53,2.63,2.9,2.23,4.76C155.97,322.67,155.78,322.74,155.59,322.81z" />
    </g>
</svg>
